<svg xmlns="http://www.w3.org/2000/svg" version="1.1" xmlns:xlink="http://www.w3.org/1999/xlink" xmlns:svgjs="http://svgjs.com/svgjs" width="1920" height="1080" preserveAspectRatio="none" viewBox="0 0 1920 1080"><g mask="url(&quot;#SvgjsMask1030&quot;)" fill="none"><rect width="1920" height="1080" x="0" y="0" fill="rgba(0, 0, 0, 1)"></rect><path d="M479.26 114.02L636.01 204.52L636.01 385.52L479.26 476.02L322.5 385.52L322.5 204.52zM1106.28 114.02L1263.03 204.52L1263.03 385.52L1106.28 476.02L949.52 385.52L949.52 204.52zM949.52 385.52L1106.28 476.02L1106.28 657.02L949.52 747.52L792.77 657.02L792.77 476.02zM1576.54 385.52L1733.3 476.02L1733.3 657.02L1576.54 747.52L1419.79 657.02L1419.79 476.02zM1890.05 -157.48L2046.81 -66.98L2046.81 114.02L1890.05 204.52L1733.3 114.02L1733.3 -66.98z" stroke="rgba(9, 132, 255, 1)" stroke-width="2"></path><path d="M461.16 114.02 a18.1 18.1 0 1 0 36.2 0 a18.1 18.1 0 1 0 -36.2 0zM617.91 204.52 a18.1 18.1 0 1 0 36.2 0 a18.1 18.1 0 1 0 -36.2 0zM617.91 385.52 a18.1 18.1 0 1 0 36.2 0 a18.1 18.1 0 1 0 -36.2 0zM461.16 476.02 a18.1 18.1 0 1 0 36.2 0 a18.1 18.1 0 1 0 -36.2 0zM304.4 385.52 a18.1 18.1 0 1 0 36.2 0 a18.1 18.1 0 1 0 -36.2 0zM304.4 204.52 a18.1 18.1 0 1 0 36.2 0 a18.1 18.1 0 1 0 -36.2 0zM1088.18 114.02 a18.1 18.1 0 1 0 36.2 0 a18.1 18.1 0 1 0 -36.2 0zM1244.93 204.52 a18.1 18.1 0 1 0 36.2 0 a18.1 18.1 0 1 0 -36.2 0zM1244.93 385.52 a18.1 18.1 0 1 0 36.2 0 a18.1 18.1 0 1 0 -36.2 0zM1088.18 476.02 a18.1 18.1 0 1 0 36.2 0 a18.1 18.1 0 1 0 -36.2 0zM931.42 385.52 a18.1 18.1 0 1 0 36.2 0 a18.1 18.1 0 1 0 -36.2 0zM931.42 204.52 a18.1 18.1 0 1 0 36.2 0 a18.1 18.1 0 1 0 -36.2 0zM1088.18 657.02 a18.1 18.1 0 1 0 36.2 0 a18.1 18.1 0 1 0 -36.2 0zM931.42 747.52 a18.1 18.1 0 1 0 36.2 0 a18.1 18.1 0 1 0 -36.2 0zM774.67 657.02 a18.1 18.1 0 1 0 36.2 0 a18.1 18.1 0 1 0 -36.2 0zM774.67 476.02 a18.1 18.1 0 1 0 36.2 0 a18.1 18.1 0 1 0 -36.2 0zM1558.44 385.52 a18.1 18.1 0 1 0 36.2 0 a18.1 18.1 0 1 0 -36.2 0zM1715.2 476.02 a18.1 18.1 0 1 0 36.2 0 a18.1 18.1 0 1 0 -36.2 0zM1715.2 657.02 a18.1 18.1 0 1 0 36.2 0 a18.1 18.1 0 1 0 -36.2 0zM1558.44 747.52 a18.1 18.1 0 1 0 36.2 0 a18.1 18.1 0 1 0 -36.2 0zM1401.69 657.02 a18.1 18.1 0 1 0 36.2 0 a18.1 18.1 0 1 0 -36.2 0zM1401.69 476.02 a18.1 18.1 0 1 0 36.2 0 a18.1 18.1 0 1 0 -36.2 0zM1871.95 -157.48 a18.1 18.1 0 1 0 36.2 0 a18.1 18.1 0 1 0 -36.2 0zM2028.71 -66.98 a18.1 18.1 0 1 0 36.2 0 a18.1 18.1 0 1 0 -36.2 0zM2028.71 114.02 a18.1 18.1 0 1 0 36.2 0 a18.1 18.1 0 1 0 -36.2 0zM1871.95 204.52 a18.1 18.1 0 1 0 36.2 0 a18.1 18.1 0 1 0 -36.2 0zM1715.2 114.02 a18.1 18.1 0 1 0 36.2 0 a18.1 18.1 0 1 0 -36.2 0zM1715.2 -66.98 a18.1 18.1 0 1 0 36.2 0 a18.1 18.1 0 1 0 -36.2 0z" fill="rgba(9, 132, 255, 1)"></path><path d="M31.72 734.82L145.17 800.32L145.17 931.32L31.72 996.82L-81.73 931.32L-81.73 800.32zM372.08 538.32L485.53 603.82L485.53 734.82L372.08 800.32L258.63 734.82L258.63 603.82zM485.53 -51.18L598.98 14.32L598.98 145.32L485.53 210.82L372.08 145.32L372.08 14.32zM485.53 341.82L598.98 407.32L598.98 538.32L485.53 603.82L372.08 538.32L372.08 407.32zM712.44 341.82L825.89 407.32L825.89 538.32L712.44 603.82L598.98 538.32L598.98 407.32zM1052.79 145.32L1166.25 210.82L1166.25 341.82L1052.79 407.32L939.34 341.82L939.34 210.82zM1052.79 538.32L1166.25 603.82L1166.25 734.82L1052.79 800.32L939.34 734.82L939.34 603.82zM1620.06 341.82L1733.51 407.32L1733.51 538.32L1620.06 603.82L1506.6 538.32L1506.6 407.32zM1733.51 931.32L1846.96 996.82L1846.96 1127.82L1733.51 1193.32L1620.06 1127.82L1620.06 996.82zM1846.96 -51.18L1960.41 14.32L1960.41 145.32L1846.96 210.82L1733.51 145.32L1733.51 14.32zM1846.96 734.82L1960.41 800.32L1960.41 931.32L1846.96 996.82L1733.51 931.32L1733.51 800.32z" stroke="rgba(58, 146, 236, 1)" stroke-width="2"></path></g><defs><mask id="SvgjsMask1030"><rect width="1920" height="1080" fill="#ffffff"></rect></mask></defs></svg>